<svg xmlns="http://www.w3.org/2000/svg" width="32" height="32" viewBox="0 0 2775 2776">
  <defs>
    <linearGradient id="g" x1="2319" y1="1281" x2="616" y2="1490" gradientUnits="userSpaceOnUse">
      <stop offset="0" stop-color="#13CCF5"/>
      <stop offset="1" stop-color="#25F7F5"/>
    </linearGradient>
  </defs>
  <path fill="url(#g)" d="M1391 376L1839 296l122-21c30-5 62-13 93-13 39 1 77 13 109 35 41 29 70 73 79 124 1 5 2 10 2 16 50 8 95 36 124 78 19 27 32 59 35 92 3 39 0 82 0 122v237l0 750 0 443 0 121c0 26 2 54-3 80-8 47-40 88-79 115-38 26-84 41-131 42-29 1-62-7-92-12l-164-26-349-56c-58-9-116-17-173-27-1 0-2-1-3-1l-21-3c-191 28-380 60-570 91l-148 23c-27 5-56 12-84 11-44 0-91-15-128-40-41-27-73-67-82-116-6-27-3-56-3-83l0-111 0-443 0-754 0-242c0-40-2-82 1-122 2-31 14-63 32-89 30-44 75-72 127-82 6-52 30-99 72-132 32-26 72-40 114-42 29-1 59 6 88 11l87 15 329 59 104 18c20 4 41 8 61 10l2 0z"/>
</svg>
