<svg xmlns="http://www.w3.org/2000/svg" width="360" height="800" viewBox="0 0 360 800">
  <rect width="360" height="800" rx="32" fill="#111"/>
  <rect x="8" y="8" width="344" height="784" rx="28" fill="#f4f6f8"/>
  <rect x="140" y="18" width="80" height="6" rx="3" fill="#1f2937"/>
  <text x="180" y="160" text-anchor="middle" font-family="Inter,sans-serif" font-weight="800" font-size="22" fill="#050505">pescaprecos</text>
  <rect x="40" y="190" width="280" height="6" rx="3" fill="#e6e8eb"/>
  <rect x="40" y="220" width="280" height="44" rx="22" fill="#e6e8eb"/>
  <rect x="55" y="235" width="60" height="14" rx="4" fill="#9aa1ab"/>
  <circle cx="290" cy="242" r="10" fill="#050505"/>
  <rect x="40" y="290" width="130" height="180" rx="12" fill="#fff" stroke="#e6e8eb" stroke-width="1"/>
  <rect x="55" y="305" width="60" height="80" rx="6" fill="#e6e8eb"/>
  <rect x="55" y="400" width="100" height="12" rx="4" fill="#e6e8eb"/>
  <rect x="55" y="420" width="80" height="10" rx="4" fill="#e6e8eb"/>
  <rect x="55" y="440" width="60" height="14" rx="4" fill="#17c8dc"/>
  <rect x="190" y="290" width="130" height="180" rx="12" fill="#fff" stroke="#e6e8eb" stroke-width="1"/>
  <rect x="205" y="305" width="60" height="80" rx="6" fill="#e6e8eb"/>
  <rect x="205" y="400" width="100" height="12" rx="4" fill="#e6e8eb"/>
  <rect x="205" y="420" width="80" height="10" rx="4" fill="#e6e8eb"/>
  <rect x="205" y="440" width="60" height="14" rx="4" fill="#17c8dc"/>
  <rect x="100" y="720" width="160" height="36" rx="18" fill="#e6e8eb"/>
  <rect x="160" y="738" width="40" height="4" rx="2" fill="#6b7280"/>
</svg>
