<svg xmlns="http://www.w3.org/2000/svg" width="360" height="800" viewBox="0 0 360 800">
  <rect width="360" height="800" rx="32" fill="#111"/>
  <rect x="8" y="8" width="344" height="784" rx="28" fill="#f4f6f8"/>
  <rect x="140" y="18" width="80" height="6" rx="3" fill="#1f2937"/>
  <text x="180" y="160" text-anchor="middle" font-family="Inter,sans-serif" font-weight="800" font-size="22" fill="#050505">Fluxoo EDU</text>
  <rect x="40" y="190" width="280" height="6" rx="3" fill="#e6e8eb"/>
  <rect x="40" y="215" width="200" height="10" rx="4" fill="#e6e8eb"/>
  <rect x="40" y="240" width="280" height="100" rx="12" fill="#fff" stroke="#e6e8eb" stroke-width="1"/>
  <circle cx="60" cy="275" r="16" fill="#e6e8eb"/>
  <rect x="90" y="267" width="100" height="12" rx="4" fill="#e6e8eb"/>
  <rect x="90" y="285" width="60" height="8" rx="4" fill="#e6e8eb"/>
  <rect x="270" y="267" width="30" height="20" rx="6" fill="#17c8dc"/>
  <rect x="40" y="360" width="280" height="100" rx="12" fill="#fff" stroke="#e6e8eb" stroke-width="1"/>
  <circle cx="60" cy="395" r="16" fill="#e6e8eb"/>
  <rect x="90" y="387" width="100" height="12" rx="4" fill="#e6e8eb"/>
  <rect x="90" y="405" width="60" height="8" rx="4" fill="#e6e8eb"/>
  <rect x="270" y="387" width="30" height="20" rx="6" fill="#e6e8eb"/>
  <rect x="40" y="480" width="280" height="100" rx="12" fill="#fff" stroke="#e6e8eb" stroke-width="1"/>
  <circle cx="60" cy="515" r="16" fill="#e6e8eb"/>
  <rect x="90" y="507" width="100" height="12" rx="4" fill="#e6e8eb"/>
  <rect x="90" y="525" width="60" height="8" rx="4" fill="#e6e8eb"/>
  <rect x="270" y="507" width="30" height="20" rx="6" fill="#e6e8eb"/>
  <rect x="100" y="720" width="160" height="36" rx="18" fill="#e6e8eb"/>
  <rect x="160" y="738" width="40" height="4" rx="2" fill="#6b7280"/>
</svg>
