<svg xmlns="http://www.w3.org/2000/svg" width="360" height="800" viewBox="0 0 360 800">
  <rect width="360" height="800" rx="32" fill="#111"/>
  <rect x="8" y="8" width="344" height="784" rx="28" fill="#f4f6f8"/>
  <rect x="140" y="18" width="80" height="6" rx="3" fill="#1f2937"/>
  <text x="180" y="160" text-anchor="middle" font-family="Inter,sans-serif" font-weight="800" font-size="22" fill="#050505">Essencial PDV</text>
  <rect x="40" y="190" width="280" height="6" rx="3" fill="#e6e8eb"/>
  <rect x="40" y="215" width="120" height="10" rx="4" fill="#e6e8eb"/>
  <rect x="210" y="215" width="110" height="30" rx="8" fill="#050505"/>
  <text x="265" y="235" text-anchor="middle" font-family="Inter,sans-serif" font-weight="720" font-size="12" fill="#fff">+ Novo</text>
  <rect x="40" y="270" width="280" height="140" rx="12" fill="#fff" stroke="#e6e8eb" stroke-width="1"/>
  <rect x="55" y="285" width="100" height="12" rx="4" fill="#e6e8eb"/>
  <rect x="270" y="285" width="36" height="36" rx="8" fill="#17c8dc"/>
  <rect x="55" y="315" width="140" height="10" rx="4" fill="#e6e8eb"/>
  <rect x="55" y="340" width="100" height="10" rx="4" fill="#e6e8eb"/>
  <rect x="55" y="370" width="200" height="8" rx="4" fill="#e6e8eb"/>
  <rect x="40" y="430" width="280" height="140" rx="12" fill="#fff" stroke="#e6e8eb" stroke-width="1"/>
  <rect x="55" y="445" width="100" height="12" rx="4" fill="#e6e8eb"/>
  <rect x="270" y="445" width="36" height="36" rx="8" fill="#e6e8eb"/>
  <rect x="55" y="475" width="140" height="10" rx="4" fill="#e6e8eb"/>
  <rect x="55" y="500" width="100" height="10" rx="4" fill="#e6e8eb"/>
  <rect x="55" y="530" width="200" height="8" rx="4" fill="#e6e8eb"/>
  <rect x="100" y="720" width="160" height="36" rx="18" fill="#e6e8eb"/>
  <rect x="160" y="738" width="40" height="4" rx="2" fill="#6b7280"/>
</svg>
