<?xml version="1.0" encoding="utf-8" ?><svg xmlns="http://www.w3.org/2000/svg" xmlns:xlink="http://www.w3.org/1999/xlink" width="2775" height="2776" viewBox="0 0 2775 2776"><defs><linearGradient id="gradient_0" gradientUnits="userSpaceOnUse" x1="2319.0867" y1="1281.1077" x2="616.49847" y2="1489.5166"><stop offset="0" stop-color="#13CCF5"/><stop offset="1" stop-color="#25F7F5"/></linearGradient></defs><path fill="url(#gradient_0)" d="M1391.35 375.862L1839 296.353L1960.56 274.747C1991.25 269.272 2023.16 261.456 2054.41 262.063C2093.11 262.581 2130.8 274.522 2162.74 296.388C2204.71 325.448 2233.44 369.975 2242.62 420.199C2243.51 425.495 2244.28 430.81 2244.94 436.138C2295.1 444.589 2339.84 472.67 2369.26 514.178C2388.33 540.873 2400.99 573.158 2403.68 605.957C2406.91 645.141 2404.42 688.091 2404.41 727.601L2404.39 965.218L2404.37 1715.6L2404.37 2157.69L2404.45 2279.03C2404.46 2305.4 2406.34 2333.55 2401.75 2359.56C2393.42 2406.7 2361.77 2447.84 2322.94 2474.52C2284.06 2500.66 2238.63 2515.38 2191.81 2517.01C2162.19 2517.75 2129.35 2509.4 2099.99 2504.72L1935.57 2478.41L1586.6 2422.83C1529.15 2413.68 1471.12 2405.9 1413.96 2395.25C1412.8 2395.03 1411.64 2394.79 1410.49 2394.51L1389.26 2391.47C1199.19 2419.58 1009.45 2451.74 819.7 2482.05L671.802 2505.74C644.625 2510.09 615.322 2517.42 587.859 2516.95C543.201 2516.19 496.624 2501.45 459.362 2476.94C418.481 2450.04 386.903 2409.41 377.202 2360.87C371.841 2334.05 373.967 2305 374.032 2277.73L374.11 2166.74L374.09 1724.44L374.073 970.318L374.078 729.007C374.08 688.877 371.681 647.044 374.719 607.064C377.105 575.662 389.053 544.194 406.597 518.198C436.736 473.538 481.468 446.41 533.816 436.061C539.929 383.557 564.094 337.033 605.782 303.935C638.251 278.282 678.08 263.706 719.431 262.344C749.38 261.139 778.858 267.814 808.166 273.074L894.911 288.504L1224.02 346.806L1328.48 365.358C1348.69 368.962 1369.17 373.451 1389.56 375.68L1391.35 375.862Z"/><defs><linearGradient id="gradient_1" gradientUnits="userSpaceOnUse" x1="532.97485" y1="1303.8376" x2="1371.3784" y2="1306.7852"><stop offset="0" stop-color="#00C3CA"/><stop offset="1" stop-color="#2ECAEE"/></linearGradient></defs><path fill="url(#gradient_1)" d="M1391.35 375.862L1839 296.353L1960.56 274.747C1991.25 269.272 2023.16 261.456 2054.41 262.063C2093.11 262.581 2130.8 274.522 2162.74 296.388C2204.71 325.448 2233.44 369.975 2242.62 420.199C2243.51 425.495 2244.28 430.81 2244.94 436.138C2197.3 429.917 2154.34 439.671 2107.77 447.96L2005.35 466.182C1986.76 469.485 1965.17 475.544 1946.35 475.786L1945.89 477.094C1803.91 499.971 1662.32 526.957 1520.68 551.927L1522.78 553.892C1493.27 559.942 1463.3 564.654 1433.65 570.056C1423.29 571.944 1412.4 573.166 1402.22 575.727C1404.29 577.337 1405.61 577.772 1408.06 578.575C1405.16 580.302 1406.69 580.097 1403.65 579.373C1402.12 579.01 1400.46 578.499 1398.93 578.225C1380.69 574.946 1277.75 595.276 1250.79 599.963L998.81 644.507L891.391 663.617C869.446 667.519 846.842 670.599 825.302 676.298C795.538 684.174 765.052 694.946 740.69 714.357C712.899 736.5 698.704 770.834 695.08 805.586C691.358 841.282 692.799 877.742 692.796 913.589L692.808 1080.37L692.909 1620.96L692.945 1981.01L692.838 2081.53C692.828 2098.36 691.204 2117.53 693.919 2134.06C694.164 2138.28 694.306 2142.11 693.671 2146.3C692.697 2184.7 702.867 2232.94 730.166 2261.66C765.872 2299.21 825.105 2301.59 873.272 2309.24C892.907 2312.35 913.639 2317.42 933.435 2318.1L933.33 2318.9C1025.33 2331 1117.19 2347.88 1208.85 2362.49L1327.39 2381.33C1347.85 2384.58 1369.07 2386.9 1389.26 2391.47C1199.19 2419.58 1009.45 2451.74 819.7 2482.05L671.802 2505.74C644.625 2510.09 615.322 2517.42 587.859 2516.95C543.201 2516.19 496.624 2501.45 459.362 2476.94C418.481 2450.04 386.903 2409.41 377.202 2360.87C371.841 2334.05 373.967 2305 374.032 2277.73L374.11 2166.74L374.09 1724.44L374.073 970.318L374.078 729.007C374.08 688.877 371.681 647.044 374.719 607.064C377.105 575.662 389.053 544.194 406.597 518.198C436.736 473.538 481.468 446.41 533.816 436.061C539.929 383.557 564.094 337.033 605.782 303.935C638.251 278.282 678.08 263.706 719.431 262.344C749.38 261.139 778.858 267.814 808.166 273.074L894.911 288.504L1224.02 346.806L1328.48 365.358C1348.69 368.962 1369.17 373.451 1389.56 375.68L1391.35 375.862Z"/><defs><linearGradient id="gradient_2" gradientUnits="userSpaceOnUse" x1="367.45074" y1="1474.147" x2="1386.2816" y2="1484.99"><stop offset="0" stop-color="#002640"/><stop offset="1" stop-color="#0D4762"/></linearGradient></defs><path fill="url(#gradient_2)" d="M1389.26 2391.47C1199.19 2419.58 1009.45 2451.74 819.7 2482.05L671.802 2505.74C644.625 2510.09 615.322 2517.42 587.859 2516.95C543.201 2516.19 496.624 2501.45 459.362 2476.94C418.481 2450.04 386.903 2409.41 377.202 2360.87C371.841 2334.05 373.967 2305 374.032 2277.73L374.11 2166.74L374.09 1724.44L374.073 970.318L374.078 729.007C374.08 688.877 371.681 647.044 374.719 607.064C377.105 575.662 389.053 544.194 406.597 518.198C436.736 473.538 481.468 446.41 533.816 436.061C533.305 481.157 533.152 526.257 533.355 571.355C533.351 596.065 531.631 622.145 533.872 646.726C532.003 708.925 533.153 771.409 533.166 833.638L533.19 1156.09L533.894 1978.64C540.916 2027.84 543.551 2072.43 586.721 2104.4C609.365 2121.18 640.236 2126.25 667.337 2130.8C670.78 2131.38 690.27 2133.46 691.897 2135.47C692.191 2135.83 692.894 2140.17 693.03 2141C693.317 2142.75 693.48 2144.53 693.671 2146.3C692.697 2184.7 702.867 2232.94 730.166 2261.66C765.872 2299.21 825.105 2301.59 873.272 2309.24C892.907 2312.35 913.639 2317.42 933.435 2318.1L933.33 2318.9C1025.33 2331 1117.19 2347.88 1208.85 2362.49L1327.39 2381.33C1347.85 2384.58 1369.07 2386.9 1389.26 2391.47Z"/><path fill="#00517C" d="M533.894 1978.64C540.916 2027.84 543.551 2072.43 586.721 2104.4C609.365 2121.18 640.236 2126.25 667.337 2130.8C670.78 2131.38 690.27 2133.46 691.897 2135.47C692.191 2135.83 692.894 2140.17 693.03 2141C693.317 2142.75 693.48 2144.53 693.671 2146.3C692.697 2184.7 702.867 2232.94 730.166 2261.66C765.872 2299.21 825.105 2301.59 873.272 2309.24C892.907 2312.35 913.639 2317.42 933.435 2318.1L933.33 2318.9C893.05 2323.78 852.825 2331.41 812.75 2337.83C789.37 2341.57 765.221 2347.12 741.455 2345.9C680.5 2342.77 618.156 2316.59 577.308 2270.49C558.603 2249.39 544.449 2223.88 537.818 2196.37C529.657 2162.51 533.414 2104.48 533.399 2067.32C533.388 2037.89 532.127 2007.97 533.894 1978.64Z"/><defs><linearGradient id="gradient_3" gradientUnits="userSpaceOnUse" x1="841.44336" y1="476.05255" x2="1934.9116" y2="474.1358"><stop offset="0" stop-color="#1EBFD4"/><stop offset="1" stop-color="#1DA5E4"/></linearGradient></defs><path fill="url(#gradient_3)" d="M1391.35 375.862L1839 296.353L1960.56 274.747C1991.25 269.272 2023.16 261.456 2054.41 262.063C2093.11 262.581 2130.8 274.522 2162.74 296.388C2204.71 325.448 2233.44 369.975 2242.62 420.199C2243.51 425.495 2244.28 430.81 2244.94 436.138C2197.3 429.917 2154.34 439.671 2107.77 447.96L2005.35 466.182C1986.76 469.485 1965.17 475.544 1946.35 475.786L1945.89 477.094C1803.91 499.971 1662.32 526.957 1520.68 551.927C1487.76 556.529 1403.8 576.651 1376.99 572.617C1327.94 565.235 847.779 480.79 841.889 475.695C841.33 475.211 841.015 474.503 840.578 473.908L835.207 474.417C815.099 476.112 791.038 469.083 771.029 465.534L655.844 445.246C631.427 440.929 606.473 435.315 581.706 433.88C565.596 432.946 549.806 434.156 533.816 436.061C539.929 383.557 564.094 337.033 605.782 303.935C638.251 278.282 678.08 263.706 719.431 262.344C749.38 261.139 778.858 267.814 808.166 273.074L894.911 288.504L1224.02 346.806L1328.48 365.358C1348.69 368.962 1369.17 373.451 1389.56 375.68L1391.35 375.862Z"/><defs><linearGradient id="gradient_4" gradientUnits="userSpaceOnUse" x1="2241.9424" y1="371.12787" x2="1401.2518" y2="360.07889"><stop offset="0" stop-color="#005FA4"/><stop offset="1" stop-color="#1AA0E2"/></linearGradient></defs><path fill="url(#gradient_4)" d="M1391.35 375.862L1839 296.353L1960.56 274.747C1991.25 269.272 2023.16 261.456 2054.41 262.063C2093.11 262.581 2130.8 274.522 2162.74 296.388C2204.71 325.448 2233.44 369.975 2242.62 420.199C2243.51 425.495 2244.28 430.81 2244.94 436.138C2197.3 429.917 2154.34 439.671 2107.77 447.96L2005.35 466.182C1986.76 469.485 1965.17 475.544 1946.35 475.786C1885.25 462.843 1822.9 453.499 1761.38 442.502L1391.46 376.317L1391.35 375.862Z"/><defs><linearGradient id="gradient_5" gradientUnits="userSpaceOnUse" x1="535.72064" y1="371.31097" x2="1373.7292" y2="359.61942"><stop offset="0" stop-color="#002744"/><stop offset="1" stop-color="#0A425D"/></linearGradient></defs><path fill="url(#gradient_5)" d="M533.816 436.061C539.929 383.557 564.094 337.033 605.782 303.935C638.251 278.282 678.08 263.706 719.431 262.344C749.38 261.139 778.858 267.814 808.166 273.074L894.911 288.504L1224.02 346.806L1328.48 365.358C1348.69 368.962 1369.17 373.451 1389.56 375.68L1391.35 375.862L1391.46 376.317C1376.28 377.634 1360.97 381.145 1345.95 383.807L1267.05 397.79L1015.94 442.365L884.85 465.656C874.446 467.506 849.052 470.006 840.578 473.908L835.207 474.417C815.099 476.112 791.038 469.083 771.029 465.534L655.844 445.246C631.427 440.929 606.473 435.315 581.706 433.88C565.596 432.946 549.806 434.156 533.816 436.061Z"/><path fill="#00517C" d="M533.816 436.061C549.806 434.156 565.596 432.946 581.706 433.88C606.473 435.315 631.427 440.929 655.844 445.246L771.029 465.534C791.038 469.083 815.099 476.112 835.207 474.417C800.481 480.968 765.543 486.61 730.739 492.746C670.956 503.287 596.257 513.44 558.809 567.527C541.676 592.274 538.818 617.823 533.872 646.726C531.631 622.145 533.351 596.065 533.355 571.355C533.152 526.257 533.305 481.157 533.816 436.061Z"/><defs><linearGradient id="gradient_6" gradientUnits="userSpaceOnUse" x1="2410.6145" y1="1474.0503" x2="1391.0142" y2="1485.3734"><stop offset="0" stop-color="#005C9C"/><stop offset="1" stop-color="#1FACED"/></linearGradient></defs><path fill="url(#gradient_6)" d="M2244.94 436.138C2295.1 444.589 2339.84 472.67 2369.26 514.178C2388.33 540.873 2400.99 573.158 2403.68 605.957C2406.91 645.141 2404.42 688.091 2404.41 727.601L2404.39 965.218L2404.37 1715.6L2404.37 2157.69L2404.45 2279.03C2404.46 2305.4 2406.34 2333.55 2401.75 2359.56C2393.42 2406.7 2361.77 2447.84 2322.94 2474.52C2284.06 2500.66 2238.63 2515.38 2191.81 2517.01C2162.19 2517.75 2129.35 2509.4 2099.99 2504.72L1935.57 2478.41L1586.6 2422.83C1529.15 2413.68 1471.12 2405.9 1413.96 2395.25C1412.8 2395.03 1411.64 2394.79 1410.49 2394.51L1410.23 2393.6C1407.88 2391.09 1404.72 2391.02 1401.49 2390.48L1402.73 2391.19L1401.4 2390.72L1402.11 2390.04C1437.91 2389.07 1473.56 2378.1 1508.75 2372.25L1751.79 2333.02C1777.64 2328.77 1824.13 2318.05 1848.7 2318.85L1848.36 2317.97C1868.29 2316.27 1888.79 2311.7 1908.6 2308.56C1954 2301.37 2008.35 2298.76 2043.83 2266.04C2079.65 2232.99 2083.8 2180.43 2085.76 2134.71C2104.57 2131.73 2152.85 2127.72 2166.64 2116.24C2173.42 2111.43 2181.24 2107.9 2188.21 2103.27C2217.75 2083.67 2223.45 2064.62 2234.29 2033.05C2246.12 1998.55 2241.85 1918.61 2241.86 1878.9L2241.86 1742.08L2241.83 1311.46C2241.82 1235.29 2240.26 1158.73 2242.14 1082.6L2245.57 1087.59L2245.36 646.886C2245.23 576.717 2246.73 506.268 2244.94 436.138Z"/><defs><linearGradient id="gradient_7" gradientUnits="userSpaceOnUse" x1="2243.158" y1="2179.0188" x2="1860.0586" y2="2183.8379"><stop offset="0" stop-color="#00A1E1"/><stop offset="1" stop-color="#0FC6F8"/></linearGradient></defs><path fill="url(#gradient_7)" d="M2242.14 1082.6L2245.57 1087.59L2245.49 1858.38L2245.27 2068.16C2245.3 2103.5 2248.47 2152.36 2243.01 2186.02C2237.27 2221.46 2218.34 2254.2 2193.06 2279.33C2150.79 2321.37 2087.98 2346.15 2028.46 2345.97C2007.92 2345.91 1986.56 2340.97 1966.3 2337.71C1927.12 2331.4 1887.97 2324.52 1848.7 2318.85L1848.36 2317.97C1868.29 2316.27 1888.79 2311.7 1908.6 2308.56C1954 2301.37 2008.35 2298.76 2043.83 2266.04C2079.65 2232.99 2083.8 2180.43 2085.76 2134.71C2104.57 2131.73 2152.85 2127.72 2166.64 2116.24C2173.42 2111.43 2181.24 2107.9 2188.21 2103.27C2217.75 2083.67 2223.45 2064.62 2234.29 2033.05C2246.12 1998.55 2241.85 1918.61 2241.86 1878.9L2241.86 1742.08L2241.83 1311.46C2241.82 1235.29 2240.26 1158.73 2242.14 1082.6Z"/><defs><linearGradient id="gradient_8" gradientUnits="userSpaceOnUse" x1="2086.7397" y1="2219.7351" x2="1402.8484" y2="2253.6177"><stop offset="0" stop-color="#00C8F3"/><stop offset="1" stop-color="#45E7FC"/></linearGradient></defs><path fill="url(#gradient_8)" d="M1295 2230.73C1315.66 2225.51 1371.46 2246.35 1399.3 2242.81C1446.25 2236.84 1493.45 2228.24 1540.12 2220.32L1747.78 2186.83C1773.35 2182.94 1799.15 2180.99 1824.77 2177.04C1882.28 2168.16 1939.32 2157.05 1996.59 2146.9C2024.89 2141.89 2055.01 2139.92 2082.71 2132.6C2084.02 2102.82 2083.3 2072.84 2083.3 2043.02L2083.3 1894.21L2083.24 1437.63L2085.13 1006.39L2085.39 888.335C2085.44 859.921 2086.7 830.967 2082.9 802.756C2081.07 789.164 2078.44 774.728 2073.08 762.032C2070.37 755.623 2064.91 748.628 2063.63 741.994L2065.27 742.671C2080.08 764.352 2084.76 792.57 2086.93 818.237C2090.21 857.066 2088.05 897.411 2088.05 936.457L2088.06 1151.67L2088.03 1802.16L2087.97 2015.05C2087.95 2053.54 2086.65 2092.56 2088.37 2130.98C2089.52 2131.14 2091.11 2131.43 2092.24 2131.31C2097.66 2130.74 2105.57 2130.29 2110.82 2128.98C2122.74 2126.01 2134.92 2124.18 2146.83 2121.23C2153.56 2119.57 2159.69 2116.93 2166.64 2116.24C2152.85 2127.72 2104.57 2131.73 2085.76 2134.71C2083.8 2180.43 2079.65 2232.99 2043.83 2266.04C2008.35 2298.76 1954 2301.37 1908.6 2308.56C1888.79 2311.7 1868.29 2316.27 1848.36 2317.97L1848.7 2318.85C1824.13 2318.05 1777.64 2328.77 1751.79 2333.02L1508.75 2372.25C1473.56 2378.1 1437.91 2389.07 1402.11 2390.04L1401.4 2390.72L1402.73 2391.19L1401.49 2390.48C1404.72 2391.02 1407.88 2391.09 1410.23 2393.6L1410.49 2394.51L1389.26 2391.47C1369.07 2386.9 1347.85 2384.58 1327.39 2381.33L1208.85 2362.49C1117.19 2347.88 1025.33 2331 933.33 2318.9L933.435 2318.1C1055.47 2299.35 1177.32 2279.4 1298.97 2258.27C1312.08 2255.89 1364.2 2249.52 1372.19 2246.4C1373.96 2245.71 1374.2 2245.37 1375.46 2244.3C1348.97 2238.66 1321.75 2235.11 1295 2230.73Z"/><defs><linearGradient id="gradient_9" gradientUnits="userSpaceOnUse" x1="948.49036" y1="2316.5154" x2="1830.5746" y2="2319.1838"><stop offset="0" stop-color="#16BEC9"/><stop offset="1" stop-color="#24B1E9"/></linearGradient></defs><path fill="url(#gradient_9)" d="M1375.46 2244.3C1419.48 2248.74 1463.51 2257.43 1507.21 2264.44L1727.75 2299.38L1807.14 2312.13C1820.47 2314.27 1834.89 2317.72 1848.36 2317.97L1848.7 2318.85C1824.13 2318.05 1777.64 2328.77 1751.79 2333.02L1508.75 2372.25C1473.56 2378.1 1437.91 2389.07 1402.11 2390.04L1401.4 2390.72L1402.73 2391.19L1401.49 2390.48C1404.72 2391.02 1407.88 2391.09 1410.23 2393.6L1410.49 2394.51L1389.26 2391.47C1369.07 2386.9 1347.85 2384.58 1327.39 2381.33L1208.85 2362.49C1117.19 2347.88 1025.33 2331 933.33 2318.9L933.435 2318.1C1055.47 2299.35 1177.32 2279.4 1298.97 2258.27C1312.08 2255.89 1364.2 2249.52 1372.19 2246.4C1373.96 2245.71 1374.2 2245.37 1375.46 2244.3Z"/><path fill="#10C8D7" d="M693.919 2134.06C848.086 2157.16 1001.92 2183.88 1155.81 2208.86L1250.84 2224.43C1263.64 2226.54 1282.4 2231.98 1295 2230.73C1321.75 2235.11 1348.97 2238.66 1375.46 2244.3C1374.2 2245.37 1373.96 2245.71 1372.19 2246.4C1364.2 2249.52 1312.08 2255.89 1298.97 2258.27C1177.32 2279.4 1055.47 2299.35 933.435 2318.1C913.639 2317.42 892.907 2312.35 873.272 2309.24C825.105 2301.59 765.872 2299.21 730.166 2261.66C702.867 2232.94 692.697 2184.7 693.671 2146.3C694.306 2142.11 694.164 2138.28 693.919 2134.06Z"/><defs><linearGradient id="gradient_10" gradientUnits="userSpaceOnUse" x1="2243.1506" y1="524.88745" x2="1965.0789" y2="518.60376"><stop offset="0" stop-color="#00A0DF"/><stop offset="1" stop-color="#07BEF4"/></linearGradient></defs><path fill="url(#gradient_10)" d="M1946.35 475.786C1965.17 475.544 1986.76 469.485 2005.35 466.182L2107.77 447.96C2154.34 439.671 2197.3 429.917 2244.94 436.138C2246.73 506.268 2245.23 576.717 2245.36 646.886L2245.57 1087.59L2242.14 1082.6C2240.69 1068.72 2241.76 1053.77 2241.78 1039.77L2241.82 956.93C2241.84 858.404 2242.89 759.774 2241.85 661.261C2241.44 622.067 2232.95 580.392 2203.76 552.154C2186.11 535.082 2163.55 523.676 2140.69 515.301C2098.27 499.766 2050.1 494.33 2005.65 486.271C1986.53 482.804 1965.27 476.711 1945.89 477.094L1946.35 475.786Z"/><path fill="#F1F2F2" d="M1206.2 1452.16C1236.98 1447.96 1261.4 1461.86 1286.83 1476.97C1317.25 1495.04 1340.94 1513.93 1349.84 1549.91C1354.28 1567.81 1353.73 1586.58 1348.25 1604.19C1340.98 1627.24 1325 1648.27 1312.7 1668.87L1246.2 1779.35C1262.65 1782.77 1279.76 1784.62 1296.4 1787.12L1394.15 1801.81L1692.97 1846.95L1784.65 1860.81C1804.64 1863.82 1825.76 1865.6 1845 1871.86C1863.75 1877.96 1878.99 1888.68 1891.05 1904.37C1907.45 1925.72 1913.43 1952.4 1909.92 1978.88C1908.42 1990.24 1905.64 2001.52 1903.21 2012.72C1896.39 2044.01 1888.66 2069.3 1861.81 2089.28C1828.23 2114.28 1794.86 2108.6 1756.28 2102.72L1694.19 2093.29C1674.34 2089.53 1653.96 2087.24 1633.95 2084.23L1510.42 2065.65L1139.21 2009.55L1007.75 1989.69C983.959 1986.1 957.934 1984.06 934.856 1977.45C919.429 1973.03 904.596 1962.65 893.655 1951.07C876.042 1932.29 866.667 1907.25 867.618 1881.53C868.418 1859.22 877.864 1813.98 887.571 1794.06C892.732 1783.64 899.756 1774.25 908.297 1766.36C930.058 1746.17 956.136 1739.13 985.225 1740.32L1084.68 1574.78C1101.44 1546.9 1117.28 1515.81 1137.02 1490.01C1154.19 1467.57 1178.66 1455.86 1206.2 1452.16Z"/><path fill="#F1F2F2" d="M1692.51 671.382C1718.29 667.96 1745.89 674.617 1768.06 687.881C1796.36 704.751 1816.63 732.362 1824.24 764.423C1830.14 788.354 1828.36 813.532 1819.16 836.397C1808.05 863.745 1789.37 889.922 1774.13 915.23L1692.44 1050.92L1392.13 1549.43C1381.21 1507.25 1363.04 1466.99 1325.94 1441.72C1283.04 1412.5 1232.1 1414.08 1183.25 1423.53L1193.69 1406.02C1222.87 1360.78 1249.54 1313.41 1277.33 1267.25L1444.25 990.12L1326.77 998.746C1299.71 1000.73 1269.29 1005.85 1242.45 1000.72C1225.96 997.418 1210.6 989.913 1197.86 978.932C1170.07 955.26 1163.17 925.744 1160.56 890.878C1157.81 854.226 1158.87 822.688 1184.3 793.61C1195.5 780.801 1211.36 769.345 1227.76 764.386C1256.25 755.769 1320.03 754.445 1351.88 752.101L1598.39 734.126C1601.59 728.735 1604.94 723.539 1608.75 718.553C1629.7 691.13 1658.71 676.091 1692.51 671.382Z"/></svg>